<svg version="1.2" xmlns="http://www.w3.org/2000/svg" viewBox="0 0 252 210" width="252" height="210"><defs><linearGradient id="P" gradientUnits="userSpaceOnUse"/><linearGradient id="g1" x1=".8" y1="5.9" x2="251.5" y2="5.9" href="#P"><stop offset=".46" stop-color="#0dc3f2"/><stop offset="1" stop-color="#c2e6ec"/></linearGradient><linearGradient id="g2" x1="20.9" y1=".3" x2="135.5" y2=".3" href="#P"><stop offset=".13" stop-color="#0dc3f2"/><stop offset="1" stop-color="#fefefe"/></linearGradient><linearGradient id="g3" x1=".1" y1="3.3" x2="177.8" y2="3.3" href="#P"><stop offset=".13" stop-color="#0dc3f2"/><stop offset="1" stop-color="#c2e6ec"/></linearGradient></defs><style>.a{fill:url(#g1)}.b{fill:url(#g2)}.c{fill:url(#g3)}</style><path class="a" d="m251.5 108.4q0 0 0 0l-0.3 6.7q0 0 0 0v0.1l-1.3 39.4v0.7c0 1.3 0 2.5 0 3.6 0 28.3-23 48.1-52.7 50.3-1.6 0.1-3.5 0.1-5.1 0.1h-1.5-189.8l39.3-54.7 27.3-37.9 3.3-4.5 18.5-25.7 8.7-12.2 49.3-68.4q1.2 0.5 2.3 1.1l8.5 5.5q1 0.8 1.9 1.6c10.2 9.1 16.6 22 16.6 36.3 0 4.6-0.7 9.2-2 13.5-1.1 3.6-2.6 7.1-4.5 10.4q-0.5 0.8-1 1.7 0 0-0.1 0.1l-3 4.2-22.1 30.6-0.9 1.3-3.3 4.5-27.2 37.9h76.9v-42.4h-27.7l24.1-33.5 9.7-13.5 4.5-6.2c28.1 1 50.6 22.6 51.6 49.4z"/><path class="b" d="m130.3 0.3c4-0.6 6.7 4.2 4.2 7.7l-16.7 23.6-8.3 11.6c-1.3 1.9-3.8 2.5-5.7 1.5l-1-0.5-17.4-8.9-4.6-2.3-3.7-2q-0.8-0.4-1.6-0.8-1.6-0.7-3.4-0.8c-5.6-0.4-10.6 3.3-12.5 8.8q-0.6 1.7-0.8 3.6-0.2 2.2 0.3 4.2c0.3 1.7 0.9 3.3 1.8 4.7 0.9 1.4 2.1 2.6 3.4 3.5q0.5 0.3 1 0.6 0.7 0.4 1.5 0.7 0.2 0.1 0.4 0.2l12.6 6.4 7 3.6c2.5 1.3 3.3 4.7 1.6 7.2l-7.3 10.2-27.3 38.4-24.6 34.6c-2.8 3.9-8.6 1.7-8.3-3.1l2.7-39.6 4-57.6v-0.1l1-13.6 0.1-1.7q0.2-2.1 0.6-4.1c2.1-9.6 8-17.5 15.7-21.7q1.5-0.8 3.1-1.5 0.4-0.2 1-0.2l10.4-1.6c0.1 0 0.4-0.1 0.5-0.1 0.6-0.1 1.7-0.2 2.3-0.2l2.7-0.3q0.2-0.1 0.3-0.1l8.5-1.6 27-4.1z"/><path class="c" d="m173.4 69.1l-1 1.5-15.2 22.7-58.1 80.4-25.7 35.6h-73.3l25.7-35.6 58.2-80.4 2.9-4.1 14.6-20.1 47.5-65.8 9.7 6.3c11.7 9.5 19.1 23.5 19.1 39.2 0 7.2-1.5 14.1-4.4 20.3z"/></svg>